#!OML:ASF F:\VICON\USERDATA\INSTALL\rory3\rory3.ASF
:FULLY-SPECIFIED
:DEGREES
240
root 0.38897975526789536 17.69825437195822 63.18879230211159 -1.3118376126907831 0.28905789621536626 -2.1192420406470727
lfemur -13.50740985778364 -2.746083964991477 -17.799521183713495
ltibia 29.616856749397563
lfoot 3.551621997715099 -1.3207921108330223
ltoes -4.56807753488788
rfemur -15.647808399278995 2.666342730505357 25.511711438206365
rtibia 39.726785704691856
rfoot -7.597005150624866 -10.35703220275019
rtoes 4.587613655763848
lowerback 10.849170164806607 -0.08960954765872606 2.0689503652104415
upperback -0.35824831863040507 0.35209437666237836 2.0545773419883693
thorax -5.880719151704448 0.1026379493427109 0.9221751145600365
lowerneck -16.08625081169622 -3.1403887786874 -3.4691782465059893
upperneck 22.105040958571852 -3.8847702178112127 1.7700005108553207
head 9.659594374694766 -1.868744931212475 0.7649331047052015
lclavicle -2.024503013491369e-15 -7.1050035284780645e-16
lhumerus -33.03606380940125 2.502235589610941 80.30244428797495
lradius 28.49325451678772
lwrist 7.237507000597579
lhand -29.947386311780186 18.76550713389252
lfingers 7.12502
lthumb -2.937603516768547 48.860298345851895
rclavicle -2.0274094636421215e-15 -7.123414735542614e-16
rhumerus -29.82358996700805 -21.218528796193674 -76.01253097333698
rradius 21.030186163125165
rwrist 6.235433648445827
rhand -17.52635827557935 21.179704282413454
rfingers 7.12502
rthumb 8.027715135840253 -7.653147046889768
241
root 0.3830253179862085 17.67827717339461 63.019741418058736 -1.2657856619062757 0.2197196459864072 -2.27118899880172
lfemur -13.51267808619782 -2.7446052734613455 -17.698084803564893
ltibia 28.670768559139336
lfoot 2.544042418862963 -0.857443261083338
ltoes -4.894475488009868
rfemur -15.742787297878346 2.5256727285477263 25.79992480317301
rtibia 39.88241590763209
rfoot -7.454217058965029 -10.420575581767427
rtoes 4.634857051036825
lowerback 10.909654314687455 -0.03881010114215358 2.2036352043374055
upperback -0.4113644831905572 0.4554606613756372 2.072086928959791
thorax -5.969826581476817 0.1512209753776127 0.8935680238494341
lowerneck -16.087408237876843 -3.1499752485090307 -3.46972996686186
upperneck 22.067362158538337 -3.9006537028760366 1.7775570369578408
head 9.646124472869912 -1.87113213388229 0.7675857368995882
lclavicle -2.0243523386429378e-15 -7.104032161266199e-16
lhumerus -32.940595652386286 2.556084765444008 80.40226413172759
lradius 28.72596877635033
lwrist 6.976512413186049
lhand -29.81139699648754 18.82865106360882
lfingers 7.12502
lthumb -2.8115155922859 48.93742194449386
rclavicle -2.0272720290582298e-15 -7.122537362716216e-16
rhumerus -29.969805941774116 -21.43391732395959 -75.83367486690624
rradius 20.849536117683666
rwrist 6.514071312516311
rhand -17.5600228233832 21.164679133911925
rfingers 7.12502
rthumb 8.065756917624425 -7.558899979254977
242
root 0.3804499881343594 17.651401084630486 62.920475723843026 -1.2848263035979923 0.3545332458578929 -2.1903278891515696
lfemur -13.437252986364019 -2.8837555385628613 -17.809966560772057
ltibia 27.855297977894242
lfoot 1.483572896775673 -0.2112296361489432
ltoes -5.353313610698443
rfemur -15.77653629031393 2.260818543576071 25.761318011689838
rtibia 40.07418453359312
rfoot -7.389655920883731 -10.50539155297789
rtoes 4.448019905411172
lowerback 10.977666205234971 -0.07714876917121907 2.1988014058374192
upperback -0.4311242461874042 0.3930034268881869 2.058685358432365
thorax -6.034982286630575 0.1144101384167616 0.9313984828269157
lowerneck -16.1069321240395 -3.1663496981313224 -3.479686602523797
upperneck 22.026781901451105 -3.9323319503370455 1.8380651816637867
head 9.636285269382544 -1.8798606935672202 0.7844867366945696
lclavicle -2.0243391910241618e-15 -7.103944544040558e-16
lhumerus -32.85037298998973 2.5518751984871457 80.50919534739113
lradius 28.964809821778164
lwrist 6.540004762937169
lhand -29.644768937015687 19.12204330975841
lfingers 7.12502
lthumb -2.6618073625452823 49.104094298426055
rclavicle -2.0269517704224354e-15 -7.120492306528252e-16
rhumerus -30.104728285250403 -21.673080912620417 -75.67418580192673
rradius 20.656561586837025
rwrist 6.679557897463287
rhand -17.591620758959692 21.19704301534931
rfingers 7.12502
rthumb 8.069669390391718 -7.570040312045848
243
root 0.3803875971199007 17.61254798745923 62.874100939222146 -1.3168161668412786 0.2217941248283407 -2.2288717547816983
lfemur -13.207601303480562 -2.833306484436852 -17.770375811140447
ltibia 27.284081723460368
lfoot 0.012061372504368784 0.1310403345265052
ltoes -6.270862194733791
rfemur -16.047376297475907 2.128913012873144 25.898754185315358
rtibia 40.66696321498965
rfoot -7.28060129373041 -10.580325853235177
rtoes 4.1508606551903835
lowerback 11.066245887151007 -0.01360653562832484 2.187206319668747
upperback -0.4353185211774929 0.4938398492992806 2.0673988031043438
thorax -6.087352082533229 0.17064218799215694 0.9537306865060737
lowerneck -16.12473016763489 -3.173281604651206 -3.4766837194215228
upperneck 21.999208865712813 -3.9470682161187054 1.8502477004593327
head 9.631856173779404 -1.8841786263341556 0.7848475581868376
lclavicle -2.0244271689453338e-15 -7.104501760983538e-16
lhumerus -32.73256265305541 2.433234538647299 80.65035915289181
lradius 29.16885553380149
lwrist 6.15485836124804
lhand -29.54331288964374 19.22594100785066
lfingers 7.12502
lthumb -2.564403316553078 49.202796766234336
rclavicle -2.0274404142109983e-15 -7.123612233951458e-16
rhumerus -30.206647409694813 -21.90555721116164 -75.519148680683
rradius 20.491091122371632
rwrist 6.870007805342739
rhand -17.664960582501767 21.180471259484523
rfingers 7.12502
rthumb 8.05751380323714 -7.6324261686057975
